# xmcd
#
# Track frame offsets: 
#        150
#        17027
#        35317
#        51018
#        68957
#        90707
#        103628
#        118986
#        134588
#        157073
#        167311
#        184974
#
# Disc length: 2658 seconds
#
# Revision: 1
# Processed by: cddbd v1.5.2PL0 Copyright (c) Steve Scherf et al.
# Submitted via: ExactAudioCopyFreeDBPlugin 1.0
#
DISCID=a30a600c
DTITLE=Ruthie Foster - Promise Of A Brand New Day
DYEAR=2014
DGENRE=Blues
TTITLE0=Singing The Blues
TTITLE1=Let Me Know
TTITLE2=My Kind Of Lover
TTITLE3=The Ghetto
TTITLE4=Outlaw
TTITLE5=Second Coming
TTITLE6=It Might Not Be Right
TTITLE7=Learning To How Fly
TTITLE8=Believe
TTITLE9=Brand New Day
TTITLE10=Complicated Love
TTITLE11=New
EXTD=YEAR: 2014
EXTT0=
EXTT1=
EXTT2=
EXTT3=
EXTT4=
EXTT5=
EXTT6=
EXTT7=
EXTT8=
EXTT9=
EXTT10=
EXTT11=
PLAYORDER=
